TITLE ""
FILE "P1Q_t_0888-0896.mp3" MP3
  TRACK 01 AUDIO
    TITLE "P1Q_t_0888-0896_01"
    INDEX 01 00:00:00
  TRACK 02 AUDIO
    TITLE "P1Q_t_0888-0896_02"
    INDEX 01 00:01:33
  TRACK 03 AUDIO
    TITLE "P1Q_t_0888-0896_03"
    INDEX 01 00:01:57
  TRACK 04 AUDIO
    TITLE "P1Q_t_0888-0896_04"
    INDEX 01 00:04:45
  TRACK 05 AUDIO
    TITLE "P1Q_t_0888-0896_05"
    INDEX 01 00:04:67
  TRACK 06 AUDIO
    TITLE "P1Q_t_0888-0896_06"
    INDEX 01 00:09:74
  TRACK 07 AUDIO
    TITLE "P1Q_t_0888-0896_07"
    INDEX 01 00:10:48
  TRACK 08 AUDIO
    TITLE "P1Q_t_0888-0896_08"
    INDEX 01 00:11:59
  TRACK 09 AUDIO
    TITLE "P1Q_t_0888-0896_09"
    INDEX 01 00:12:04
  TRACK 10 AUDIO
    TITLE "P1Q_t_0888-0896_10"
    INDEX 01 00:13:23
  TRACK 11 AUDIO
    TITLE "P1Q_t_0888-0896_11"
    INDEX 01 00:13:44
  TRACK 12 AUDIO
    TITLE "P1Q_t_0888-0896_12"
    INDEX 01 00:17:54
  TRACK 13 AUDIO
    TITLE "P1Q_t_0888-0896_13"
    INDEX 01 00:18:24
  TRACK 14 AUDIO
    TITLE "P1Q_t_0888-0896_14"
    INDEX 01 00:19:49
  TRACK 15 AUDIO
    TITLE "P1Q_t_0888-0896_15"
    INDEX 01 00:19:72
  TRACK 16 AUDIO
    TITLE "P1Q_t_0888-0896_16"
    INDEX 01 00:22:65
  TRACK 17 AUDIO
    TITLE "P1Q_t_0888-0896_17"
    INDEX 01 00:23:11
  TRACK 18 AUDIO
    TITLE "P1Q_t_0888-0896_18"
    INDEX 01 00:28:03
  TRACK 19 AUDIO
    TITLE "P1Q_t_0888-0896_19"
    INDEX 01 00:28:50
  TRACK 20 AUDIO
    TITLE "P1Q_t_0888-0896_20"
    INDEX 01 00:29:51
  TRACK 21 AUDIO
    TITLE "P1Q_t_0888-0896_21"
    INDEX 01 00:29:75
  TRACK 22 AUDIO
    TITLE "P1Q_t_0888-0896_22"
    INDEX 01 00:32:48
  TRACK 23 AUDIO
    TITLE "P1Q_t_0888-0896_23"
    INDEX 01 00:32:69
  TRACK 24 AUDIO
    TITLE "P1Q_t_0888-0896_24"
    INDEX 01 00:38:48
  TRACK 25 AUDIO
    TITLE "P1Q_t_0888-0896_25"
    INDEX 01 00:39:18
  TRACK 26 AUDIO
    TITLE "P1Q_t_0888-0896_26"
    INDEX 01 00:40:51
  TRACK 27 AUDIO
    TITLE "P1Q_t_0888-0896_27"
    INDEX 01 00:40:73
  TRACK 28 AUDIO
    TITLE "P1Q_t_0888-0896_28"
    INDEX 01 00:43:36
  TRACK 29 AUDIO
    TITLE "P1Q_t_0888-0896_29"
    INDEX 01 00:43:51
  TRACK 30 AUDIO
    TITLE "P1Q_t_0888-0896_30"
    INDEX 01 00:50:59
  TRACK 31 AUDIO
    TITLE "P1Q_t_0888-0896_31"
    INDEX 01 00:51:33
  TRACK 32 AUDIO
    TITLE "P1Q_t_0888-0896_32"
    INDEX 01 00:52:33
  TRACK 33 AUDIO
    TITLE "P1Q_t_0888-0896_33"
    INDEX 01 00:52:56
  TRACK 34 AUDIO
    TITLE "P1Q_t_0888-0896_34"
    INDEX 01 00:55:37
  TRACK 35 AUDIO
    TITLE "P1Q_t_0888-0896_35"
    INDEX 01 00:55:56
  TRACK 36 AUDIO
    TITLE "P1Q_t_0888-0896_36"
    INDEX 01 01:00:03
  TRACK 37 AUDIO
    TITLE "P1Q_t_0888-0896_37"
    INDEX 01 01:00:50
  TRACK 38 AUDIO
    TITLE "P1Q_t_0888-0896_38"
    INDEX 01 01:01:57
  TRACK 39 AUDIO
    TITLE "P1Q_t_0888-0896_39"
    INDEX 01 01:02:27
  TRACK 40 AUDIO
    TITLE "P1Q_t_0888-0896_40"
    INDEX 01 01:03:42
  TRACK 41 AUDIO
    TITLE "P1Q_t_0888-0896_41"
    INDEX 01 01:03:64
  TRACK 42 AUDIO
    TITLE "P1Q_t_0888-0896_42"
    INDEX 01 01:06:35
  TRACK 43 AUDIO
    TITLE "P1Q_t_0888-0896_43"
    INDEX 01 01:06:54
  TRACK 44 AUDIO
    TITLE "P1Q_t_0888-0896_44"
    INDEX 01 01:11:38
  TRACK 45 AUDIO
    TITLE "P1Q_t_0888-0896_45"
    INDEX 01 01:12:10
  TRACK 46 AUDIO
    TITLE "P1Q_t_0888-0896_46"
    INDEX 01 01:13:33
  TRACK 47 AUDIO
    TITLE "P1Q_t_0888-0896_47"
    INDEX 01 01:13:54
  TRACK 48 AUDIO
    TITLE "P1Q_t_0888-0896_48"
    INDEX 01 01:17:74
  TRACK 49 AUDIO
    TITLE "P1Q_t_0888-0896_49"
    INDEX 01 01:18:18
  TRACK 50 AUDIO
    TITLE "P1Q_t_0888-0896_50"
    INDEX 01 01:23:27
  TRACK 51 AUDIO
    TITLE "P1Q_t_0888-0896_51"
    INDEX 01 01:23:74
  TRACK 52 AUDIO
    TITLE "P1Q_t_0888-0896_52"
    INDEX 01 01:25:28
  TRACK 53 AUDIO
    TITLE "P1Q_t_0888-0896_53"
    INDEX 01 01:25:50
  TRACK 54 AUDIO
    TITLE "P1Q_t_0888-0896_54"
    INDEX 01 01:26:63
  TRACK 55 AUDIO
    TITLE "P1Q_t_0888-0896_55"
    INDEX 01 01:27:09
  TRACK 56 AUDIO
    TITLE "P1Q_t_0888-0896_56"
    INDEX 01 01:31:23
